<?xml version="1.0" encoding="UTF-8" standalone="no"?>
<!-- Created with Inkscape (http://www.inkscape.org/) -->

<svg
   xmlns:dc="http://purl.org/dc/elements/1.1/"
   xmlns:cc="http://creativecommons.org/ns#"
   xmlns:rdf="http://www.w3.org/1999/02/22-rdf-syntax-ns#"
   xmlns:svg="http://www.w3.org/2000/svg"
   xmlns="http://www.w3.org/2000/svg"
   xmlns:sodipodi="http://sodipodi.sourceforge.net/DTD/sodipodi-0.dtd"
   xmlns:inkscape="http://www.inkscape.org/namespaces/inkscape"
   width="210mm"
   height="297mm"
   viewBox="0 0 210 297"
   version="1.1"
   id="svg8"
   inkscape:version="0.92.4 (5da689c313, 2019-01-14)"
   sodipodi:docname="drawing.svg">
  <defs
     id="defs2" />
  <sodipodi:namedview
     id="base"
     pagecolor="#ffffff"
     bordercolor="#666666"
     borderopacity="1.0"
     inkscape:pageopacity="0.0"
     inkscape:pageshadow="2"
     inkscape:zoom="2"
     inkscape:cx="309.70963"
     inkscape:cy="467.22871"
     inkscape:document-units="mm"
     inkscape:current-layer="layer8"
     showgrid="false"
     inkscape:window-width="1850"
     inkscape:window-height="1016"
     inkscape:window-x="70"
     inkscape:window-y="27"
     inkscape:window-maximized="1" />
  <metadata
     id="metadata5">
    <rdf:RDF>
      <cc:Work
         rdf:about="">
        <dc:format>image/svg+xml</dc:format>
        <dc:type
           rdf:resource="http://purl.org/dc/dcmitype/StillImage" />
        <dc:title></dc:title>
      </cc:Work>
    </rdf:RDF>
  </metadata>
  <g
     inkscape:label="Layer 1"
     inkscape:groupmode="layer"
     id="layer1"
     style="display:none">
    <path
       id="path888"
       d="m 86.700611,209.73929 c -0.534778,-0.49822 -0.663553,-2.16958 -0.268969,-3.49095 0.371347,-1.24355 1.646422,-2.66282 3.056295,-3.40192 1.119054,-0.58664 2.223637,-0.86293 3.516828,-0.87968 0.996388,-0.0129 1.042706,-0.0264 0.981644,-0.28722 -0.09598,-0.4099 -1.141134,-3.09832 -1.252564,-3.22193 -0.05319,-0.059 -0.488494,-0.24951 -0.967335,-0.42331 -1.200717,-0.43584 -2.143267,-1.08606 -3.359841,-2.3178 -2.176083,-2.20322 -3.244918,-4.83707 -3.379986,-8.32903 -0.07792,-2.01444 0.07185,-3.17578 0.631872,-4.89972 0.854724,-2.63115 2.674616,-4.92014 4.920831,-6.18925 0.480685,-0.27159 0.735362,-0.49482 0.710236,-0.62256 -0.02182,-0.11079 -0.497542,-0.39112 -1.072238,-0.6318 -2.908026,-1.21787 -5.474827,-2.89054 -7.501915,-4.88867 -1.670501,-1.64664 -2.419117,-2.63973 -3.211197,-4.2599 -1.008996,-2.06387 -1.463639,-4.42659 -1.230284,-6.39364 l 0.114895,-0.9685 -0.477871,-0.38254 c -1.879759,-1.50478 -2.893573,-3.67292 -2.674405,-5.71948 0.291207,-2.71925 2.091773,-4.91099 4.644024,-5.65295 1.850488,-0.53795 4.192979,-0.0614 5.689144,1.15744 l 0.388607,0.31657 0.93433,-0.56435 c 4.091899,-2.47156 10.382521,-4.21238 15.774518,-4.36533 l 0.95694,-0.0271 0.17925,-0.51654 c 0.18384,-0.52974 1.46696,-4.57542 1.78158,-5.61732 0.90844,-3.00834 2.14625,-6.64799 2.32995,-6.85098 0.33763,-0.37308 0.51986,-0.34998 4.12604,0.5229 3.51775,0.85147 7.08028,1.67864 7.1028,1.64917 0.0145,-0.019 0.17829,-0.29797 0.36403,-0.62003 1.14538,-1.98608 3.49842,-3.06082 5.62702,-2.57013 3.33529,0.76887 5.04712,4.25634 3.61467,7.36408 -0.31246,0.67788 -0.61784,1.0922 -1.17998,1.60091 -1.06221,0.96125 -1.98182,1.29306 -3.58367,1.29306 -1.10675,0 -1.30888,-0.0393 -2.06614,-0.40166 -1.69726,-0.81217 -2.71785,-2.17775 -2.98803,-3.9981 l -0.13318,-0.89731 -1.44175,-0.34789 c -0.79297,-0.19134 -2.34247,-0.55641 -3.44333,-0.81126 -1.10086,-0.25486 -2.59761,-0.60937 -3.32609,-0.78781 -0.72849,-0.17843 -1.37352,-0.29415 -1.43341,-0.25713 -0.0599,0.037 -0.23698,0.49054 -0.39354,1.00785 -0.15655,0.5173 -0.39123,1.26016 -0.5215,1.65079 -0.13027,0.39063 -0.45307,1.40756 -0.71734,2.25984 -0.26427,0.85228 -0.61513,1.95638 -0.77969,2.45354 -0.45603,1.3778 -1.22212,3.79083 -1.22212,3.84945 0,0.0286 0.53751,0.0915 1.19448,0.13963 5.47397,0.40121 10.80323,1.96366 14.64765,4.29445 0.50995,0.30918 0.97612,0.56214 1.03593,0.56214 0.0598,0 0.31085,-0.16611 0.55786,-0.36912 1.89982,-1.56144 4.81458,-1.77324 7.05316,-0.51252 0.78643,0.4429 1.88548,1.50804 2.31854,2.24699 0.75601,1.29003 1.09371,3.08141 0.82847,4.39467 -0.33745,1.67076 -1.64575,3.62903 -2.8356,4.24432 l -0.37087,0.19179 0.003,1.77831 c 0.002,1.18884 -0.0691,2.11643 -0.21458,2.79836 -1.01309,4.74821 -5.39391,9.27762 -11.49844,11.88843 -0.71023,0.30376 -1.30564,0.63251 -1.32313,0.73055 -0.0183,0.10252 0.3417,0.38768 0.84708,0.67102 4.35651,2.44247 6.56677,8.44563 5.13858,13.95656 -0.97385,3.7578 -3.61126,6.83065 -6.72867,7.83962 -0.28409,0.0919 -0.58409,0.22825 -0.66666,0.3029 -0.0826,0.0746 -0.3276,0.64332 -0.54451,1.26372 -0.21691,0.6204 -0.48348,1.30031 -0.59239,1.51091 -0.37265,0.72062 -0.30649,0.78314 0.8287,0.78314 1.32794,0 2.17263,0.18788 3.34369,0.74374 1.27124,0.6034 2.4222,1.68813 3.00003,2.8274 0.42652,0.84093 0.44216,0.92378 0.44216,2.34192 0,1.45077 -0.005,1.47426 -0.36232,1.78169 l -0.36231,0.31154 h -17.1431 c -16.867128,0 -17.147639,-0.004 -17.415809,-0.25393 z"
       style="display:inline;fill:none;fill-opacity:1;stroke:#000000;stroke-width:6;stroke-miterlimit:4;stroke-dasharray:none;stroke-opacity:1"
       inkscape:connector-curvature="0" />
  </g>
  <g
     inkscape:groupmode="layer"
     id="layer3"
     inkscape:label="base contour"
     style="display:none">
    <path
       style="color:#000000;font-style:normal;font-variant:normal;font-weight:normal;font-stretch:normal;font-size:medium;line-height:normal;font-family:sans-serif;font-variant-ligatures:normal;font-variant-position:normal;font-variant-caps:normal;font-variant-numeric:normal;font-variant-alternates:normal;font-feature-settings:normal;text-indent:0;text-align:start;text-decoration:none;text-decoration-line:none;text-decoration-style:solid;text-decoration-color:#000000;letter-spacing:normal;word-spacing:normal;text-transform:none;writing-mode:lr-tb;direction:ltr;text-orientation:mixed;dominant-baseline:auto;baseline-shift:baseline;text-anchor:start;white-space:normal;shape-padding:0;clip-rule:nonzero;display:inline;overflow:visible;visibility:visible;opacity:1;isolation:auto;mix-blend-mode:normal;color-interpolation:sRGB;color-interpolation-filters:linearRGB;solid-color:#000000;solid-opacity:1;vector-effect:none;fill:#ff0000;fill-opacity:1;fill-rule:nonzero;stroke:#000000;stroke-width:0.37795275;stroke-linecap:round;stroke-linejoin:round;stroke-miterlimit:4;stroke-dasharray:none;stroke-dashoffset:0;stroke-opacity:1;paint-order:normal;color-rendering:auto;image-rendering:auto;shape-rendering:auto;text-rendering:auto;enable-background:accumulate"
       d="m 469.85352,476.89453 c -0.62464,-0.0183 -1.24772,-0.0172 -1.86719,0.004 -8.82255,0.29934 -17.01454,4.36343 -22.73633,11.10547 -0.336,-0.0779 -0.4945,-0.11135 -0.84766,-0.19336 -4.99287,-1.15922 -11.65852,-2.73918 -18.27148,-4.33985 -6.83505,-1.65445 -10.2116,-2.54384 -13.67188,-2.98242 -1.73011,-0.21921 -3.85276,-0.47615 -6.82226,0.42383 -2.96946,0.89994 -5.47649,3.22142 -6.17578,3.99414 -1.80824,1.99812 -1.65149,2.31549 -1.89844,2.80664 -0.2468,0.49115 -0.40436,0.84971 -0.5625,1.2207 -0.31635,0.74196 -0.60804,1.49337 -0.9375,2.37305 -0.65896,1.75933 -1.43996,3.97723 -2.30664,6.52539 -1.73341,5.09628 -3.78587,11.45868 -5.54883,17.29688 -0.79865,2.64476 -3.27417,10.37453 -4.91211,15.49609 -19.93733,1.23715 -40.99523,6.99073 -57.30664,15.9707 l -0.69336,0.23438 c -8.05562,-4.47232 -17.43913,-5.61365 -26.55078,-2.96485 -14.02133,4.07611 -24.09945,16.49143 -25.6582,31.04688 -1.16644,10.89196 3.38514,21.28844 11.21484,28.92187 l 0.17188,0.15235 c 0.0187,-0.20125 0.0417,-0.39082 0.0156,0.0137 0.38361,0.36955 0.2174,0.23754 -0.006,0.0469 -0.0132,0.1052 -0.024,0.17508 -0.0254,0.16601 v 0.002 l 0.0215,0.0508 c -0.55072,9.3456 1.52436,18.92548 5.82421,27.72071 3.42857,7.01299 7.63198,12.56016 14.36329,19.19531 5.86411,5.78033 12.71911,10.7604 20.20117,15.00391 -5.26692,5.69593 -9.44231,12.45445 -11.90235,20.02734 -2.39595,7.37556 -3.25623,14.11979 -2.93359,22.46094 0.59124,15.28569 5.94153,28.7883 16.03711,39.00976 v 0.002 c 3.06456,3.10276 6.23081,5.65704 9.54102,7.74414 -0.88903,0.386 -1.79125,0.741 -2.6504,1.1914 -8.1245,4.25912 -14.3908,10.40204 -17.15429,19.65625 -1.21762,4.07755 -1.5474,7.99915 -1.24805,11.87891 0.29934,3.87976 0.0982,7.91396 5.40234,12.85547 0.48347,0.45003 2.67979,2.06384 4.36719,2.67578 1.68847,0.61228 2.8168,0.73155 3.88672,0.84766 2.13985,0.23244 4.40985,0.28882 8.69531,0.35156 8.57092,0.1251 24.72767,0.12695 56.60352,0.12695 h 64.79297 c 2.71355,1.2e-4 5.33718,-0.97283 7.39453,-2.74219 l 1.36914,-1.17773 c 0.76445,-0.65771 4.26209,-4.90511 4.9082,-8.08203 0.64611,-3.17692 0.4043,-4.49357 0.4043,-7.24805 0,-2.72213 0.0881,-4.61996 -0.42774,-7.34961 -0.51574,-2.72961 -1.62223,-4.95808 -2.4707,-6.63086 -3.61784,-7.13306 -9.42308,-12.39996 -16.58789,-15.80078 -0.44689,-0.21203 -0.91728,-0.36357 -1.37109,-0.55859 11.75539,-7.01787 20.29454,-19.22404 23.96484,-33.38672 5.25581,-20.28049 0.18067,-41.78804 -13.08789,-55.99219 20.06117,-11.28964 34.86145,-27.89418 39.03711,-47.46484 0.81849,-3.83675 1.05383,-7.90287 1.05273,-12.76172 0,0 3.36602,-3.83199 6.05274,-7.85352 2.68675,-4.02153 4.80552,-8.46851 5.83594,-13.57031 1.76825,-8.75482 -0.034,-17.03036 -4.46094,-24.58594 -3.46571,-5.91371 -7.17439,-9.36771 -12.98242,-12.63867 -10.99707,-6.19332 -24.30335,-6.24602 -34.94922,-0.0469 -13.73533,-7.7746 -30.54931,-12.84645 -48.24219,-15.20703 0.14362,-0.43832 0.32277,-1.01213 0.45313,-1.40625 0.68443,-2.06778 1.99425,-6.19086 3.01367,-9.47852 0.98105,-3.16392 2.23469,-7.10499 2.63672,-8.31055 0.0453,-0.13644 0.11688,-0.37794 0.16601,-0.52734 2.72527,0.64947 5.32724,1.27711 7.96875,1.88867 3.68039,0.85198 8.40962,1.96909 11.5332,2.7168 2.56691,8.33174 8.47,15.55841 16.38868,19.34765 3.28335,1.57115 8.25265,2.62696 12.70312,2.62696 7.61949,0 15.68552,-2.87115 21.15235,-7.81836 2.87947,-2.6058 5.52787,-6.19084 7.15039,-9.71094 8.20146,-17.79326 -2.32096,-39.22596 -21.41211,-43.62695 -1.87915,-0.43319 -3.77064,-0.6677 -5.64453,-0.72266 z M 284.45703,604.21289 c 7.2e-4,-0.0289 0.005,-0.0998 0.0117,-0.17578 -0.0519,-0.0445 -0.0744,-0.0631 -0.12891,-0.11133 z m -0.11719,-0.28711 -0.0391,-0.0918 c -0.4908,-0.39288 -0.23955,-0.1545 0.0391,0.0918 z m 0.12891,0.11133 c 0.005,0.004 0.009,0.005 0.0137,0.01 0.004,-0.0296 9.4e-4,-0.005 0.006,-0.0469 l -0.0156,-0.0137 c -0.002,0.0224 -0.002,0.0288 -0.004,0.0508 z M 468.37109,488.23047 c 1.53243,-0.052 3.07163,0.0878 4.58008,0.43555 12.60582,2.90596 19.0761,16.08624 13.66211,27.83203 -1.18095,2.56206 -2.33631,4.12809 -4.46094,6.05078 -4.01465,3.63307 -7.49068,4.88672 -13.54492,4.88672 -4.18299,0 -4.94651,-0.14803 -7.80859,-1.51758 -6.41484,-3.06962 -10.27182,-8.23127 -11.29297,-15.11133 l -0.50391,-3.39062 -5.44922,-1.31446 c -2.99705,-0.72317 -8.85294,-2.10319 -13.01367,-3.0664 -4.16073,-0.96325 -9.817,-2.3041 -12.57031,-2.97852 -2.75335,-0.67438 -5.19161,-1.11062 -5.41797,-0.9707 -0.22639,0.13984 -0.89656,1.8534 -1.48828,3.80859 -0.59169,1.95515 -1.47834,4.76189 -1.9707,6.23828 -0.49236,1.4764 -1.71212,5.3198 -2.71094,8.54102 -0.99882,3.22121 -2.32531,7.39441 -2.94727,9.27344 -1.72357,5.20743 -4.61914,14.32922 -4.61914,14.55078 0,0.10809 2.03259,0.34543 4.51563,0.52734 20.68902,1.51638 40.83123,7.42118 55.36133,16.23047 1.92737,1.16855 3.68801,2.125 3.91406,2.125 0.22601,0 1.17579,-0.6292 2.10937,-1.39648 7.18043,-5.90151 18.19548,-6.70048 26.65625,-1.93555 2.97234,1.67395 7.12691,5.6993 8.76368,8.49219 2.85736,4.8757 4.13334,11.64587 3.13085,16.60937 -1.2754,6.31468 -6.21972,13.71551 -10.71679,16.04102 l -1.40235,0.72461 0.0117,6.72265 c 0.008,4.49326 -0.2607,7.9988 -0.81054,10.57617 -3.82901,17.94599 -20.38675,35.06402 -43.45899,44.93164 -2.68433,1.14807 -4.93389,2.39118 -5,2.76172 -0.0692,0.38748 1.29108,1.46622 3.20117,2.53711 16.46555,9.23139 24.81976,31.91934 19.42188,52.74805 -3.68069,14.20271 -13.6493,25.81743 -25.43164,29.63086 -1.07373,0.34734 -2.20746,0.86239 -2.51953,1.14453 -0.31219,0.28195 -1.23878,2.43057 -2.0586,4.77539 -0.81981,2.34482 -1.82665,4.91497 -2.23828,5.71094 -1.40844,2.7236 -1.15962,2.96094 3.13086,2.96094 5.01899,0 8.21262,0.70965 12.63867,2.81054 4.80469,2.28057 9.15397,6.37965 11.33789,10.68555 1.61205,3.17832 1.67188,3.49166 1.67188,8.85156 0,5.48323 -0.0186,5.57244 -1.36914,6.73438 l -1.36914,1.17773 H 393.5117 c -63.74978,0 -64.81066,-0.0163 -65.82422,-0.96094 -2.02121,-1.88303 -2.50892,-8.1992 -1.01758,-13.19336 1.40352,-4.70003 6.22408,-10.06397 11.55274,-12.85742 4.22949,-2.21722 8.40336,-3.26286 13.29101,-3.32617 3.76588,-0.0488 3.94172,-0.0982 3.71094,-1.08398 -0.36276,-1.54923 -4.31322,-11.71055 -4.73438,-12.17774 -0.20103,-0.22299 -1.84645,-0.94273 -3.65625,-1.59961 -4.53814,-1.64727 -8.10114,-4.10437 -12.69921,-8.75976 -8.22457,-8.32713 -12.26295,-18.28251 -12.77344,-31.48047 -0.2945,-7.61363 0.2701,-12.00385 2.38672,-18.51953 3.23045,-9.94451 10.10997,-18.59595 18.59961,-23.39258 1.81676,-1.02648 2.77855,-1.86877 2.68359,-2.35156 -0.0825,-0.41874 -1.88066,-1.47902 -4.05273,-2.38868 -10.99097,-4.60297 -20.69209,-10.92457 -28.35352,-18.47656 -6.3137,-6.22352 -9.14303,-9.97808 -12.13672,-16.10156 -3.81353,-7.80045 -5.53236,-16.72954 -4.65039,-24.16406 l 0.43555,-3.66016 -1.80664,-1.44531 c -7.1046,-5.68736 -10.93578,-13.88216 -10.10742,-21.61719 1.10062,-10.27748 7.90447,-18.56098 17.55078,-21.36523 6.99397,-2.0332 15.84911,-0.2336 21.5039,4.37304 l 1.46875,1.19727 3.53125,-2.13281 c 15.46545,-9.34133 39.23994,-15.92193 59.61914,-16.5 l 3.61719,-0.10157 0.67773,-1.95312 c 0.69483,-2.00217 5.54331,-17.29258 6.73243,-21.23047 3.43347,-11.3701 8.11234,-25.12537 8.80664,-25.89258 1.27608,-1.41006 1.96604,-1.32251 15.5957,1.97656 13.29543,3.21816 26.75864,6.34381 26.84375,6.23243 0.0548,-0.0718 0.67494,-1.12652 1.37695,-2.34375 3.51731,-6.09899 10.04701,-9.92319 16.6875,-10.14844 z"
       transform="scale(0.26458333)"
       id="path924"
       inkscape:connector-curvature="0" />
  </g>
  <g
     inkscape:groupmode="layer"
     id="layer7"
     inkscape:label="base details"
     style="display:none">
    <path
       style="color:#000000;font-style:normal;font-variant:normal;font-weight:normal;font-stretch:normal;font-size:medium;line-height:normal;font-family:sans-serif;font-variant-ligatures:normal;font-variant-position:normal;font-variant-caps:normal;font-variant-numeric:normal;font-variant-alternates:normal;font-feature-settings:normal;text-indent:0;text-align:start;text-decoration:none;text-decoration-line:none;text-decoration-style:solid;text-decoration-color:#000000;letter-spacing:normal;word-spacing:normal;text-transform:none;writing-mode:lr-tb;direction:ltr;text-orientation:mixed;dominant-baseline:auto;baseline-shift:baseline;text-anchor:start;white-space:normal;shape-padding:0;clip-rule:nonzero;display:inline;overflow:visible;visibility:visible;opacity:1;isolation:auto;mix-blend-mode:normal;color-interpolation:sRGB;color-interpolation-filters:linearRGB;solid-color:#000000;solid-opacity:1;vector-effect:none;fill:#ff0000;fill-opacity:1;fill-rule:nonzero;stroke:#000000;stroke-width:0;stroke-linecap:butt;stroke-linejoin:miter;stroke-miterlimit:4;stroke-dasharray:none;stroke-dashoffset:0;stroke-opacity:1;color-rendering:auto;image-rendering:auto;shape-rendering:auto;text-rendering:auto;enable-background:accumulate"
       d="m 85.914134,145.64847 c -4.921938,2.04298 -8.272552,6.7995 -9.931039,11.70746 -0.706648,4.75836 4.827184,3.22293 7.325409,2.32927 2.942521,-0.0271 6.840669,-0.83642 8.733791,2.07745 1.650334,2.87642 1.383473,6.48585 -0.431096,9.22365 -1.367165,2.53529 -3.597181,4.77939 -3.593709,7.83486 -1.298471,9.918 1.34983,19.93009 5.540752,28.86975 -0.245957,2.95701 3.639046,5.75948 6.153502,4.03368 2.365456,-0.32553 -1.751133,-5.82076 -2.460341,-8.61859 -3.670774,-8.12103 -3.984118,-14.99016 -4.388607,-21.078 0.745647,-2.63786 0.841899,-5.14494 4.546439,-9.19626 3.821555,2.34686 9.210815,2.12696 14.940625,0.80238 2.64148,2.65015 2.74474,6.80098 2.73297,10.33118 -0.13829,8.53553 -3.24252,18.94085 -7.88252,26.15911 -1.66867,3.95136 5.89917,3.44657 6.60639,-0.43005 3.79746,-8.29973 6.81183,-17.27614 6.44021,-26.51767 0.99741,-5.50776 -2.64834,-10.17293 -4.80351,-14.88413 -1.68942,-4.16567 1.93869,-8.75853 6.21897,-8.94392 3.44853,-0.66337 7.55693,2.9259 10.44013,0.18053 1.54746,-2.83821 -1.24673,-5.57915 -2.4869,-7.99968 -1.77572,-2.45198 -4.06673,-4.99337 -7.12246,-5.68565 -5.25667,3.10577 -2.15016,6.16293 -4.65739,7.61712 -1.76576,0.0172 -7.02946,-2.78395 -9.49214,0.12671 -2.3984,0.78364 -5.17117,0.40245 -7.62451,0.31687 -2.534898,-1.78225 -6.55393,-2.14749 -8.830021,-1.07631 -4.165571,-1.38342 -2.959172,-5.33538 -4.751463,-6.77761 -0.387267,-0.18895 -0.803436,-0.31155 -1.223482,-0.40215 z m 14.765506,14.03274 h 7.10913 c 2.72496,1.6828 3.23295,6.90787 -0.27156,7.97763 -2.51055,-0.13804 -5.26839,1.03235 -7.579664,-0.6282 -2.667517,-1.39212 -2.013496,-4.82585 0.05167,-6.42273 0.238484,-0.30253 0.459354,-0.61853 0.690424,-0.9267 z"
       id="path1038"
       inkscape:connector-curvature="0"
       sodipodi:nodetypes="ccccccccccccccccccccccccccccccccc" />
  </g>
  <g
     inkscape:groupmode="layer"
     id="layer8"
     inkscape:label="bases"
     style="display:inline">
    <path
       style="color:#000000;font-style:normal;font-variant:normal;font-weight:normal;font-stretch:normal;font-size:medium;line-height:normal;font-family:sans-serif;font-variant-ligatures:normal;font-variant-position:normal;font-variant-caps:normal;font-variant-numeric:normal;font-variant-alternates:normal;font-feature-settings:normal;text-indent:0;text-align:start;text-decoration:none;text-decoration-line:none;text-decoration-style:solid;text-decoration-color:#000000;letter-spacing:normal;word-spacing:normal;text-transform:none;writing-mode:lr-tb;direction:ltr;text-orientation:mixed;dominant-baseline:auto;baseline-shift:baseline;text-anchor:start;white-space:normal;shape-padding:0;clip-rule:nonzero;display:inline;overflow:visible;visibility:visible;opacity:1;isolation:auto;mix-blend-mode:normal;color-interpolation:sRGB;color-interpolation-filters:linearRGB;solid-color:#000000;solid-opacity:1;vector-effect:none;fill:none;fill-opacity:1;fill-rule:nonzero;stroke:#000000;stroke-width:0.37795275;stroke-linecap:butt;stroke-linejoin:miter;stroke-miterlimit:4;stroke-dasharray:none;stroke-dashoffset:0;stroke-opacity:1;color-rendering:auto;image-rendering:auto;shape-rendering:auto;text-rendering:auto;enable-background:accumulate"
       d="m 469.85352,476.89453 c -0.62464,-0.0183 -1.24772,-0.0173 -1.86719,0.004 -8.82255,0.29934 -17.01454,4.36343 -22.73633,11.10547 -0.336,-0.0779 -0.4945,-0.11135 -0.84766,-0.19336 -4.99287,-1.15922 -11.65852,-2.73918 -18.27148,-4.33985 -6.83505,-1.65445 -10.2116,-2.54384 -13.67188,-2.98242 -1.73011,-0.21921 -3.85276,-0.47615 -6.82226,0.42383 -2.96946,0.89994 -5.47649,3.22142 -6.17578,3.99414 -1.80824,1.99812 -1.65149,2.31549 -1.89844,2.80664 -0.2468,0.49115 -0.40436,0.84971 -0.5625,1.2207 -0.31635,0.74196 -0.60804,1.49337 -0.9375,2.37305 -0.65896,1.75933 -1.43996,3.97723 -2.30664,6.52539 -1.73341,5.09628 -3.78587,11.45868 -5.54883,17.29688 -0.79865,2.64476 -3.27417,10.37453 -4.91211,15.49609 -19.93733,1.23715 -40.99523,6.99073 -57.30664,15.9707 l -0.69336,0.23438 c -8.05562,-4.47232 -17.43913,-5.61365 -26.55078,-2.96485 -14.02133,4.07611 -24.09945,16.49143 -25.6582,31.04688 -1.16644,10.89196 3.38514,21.28844 11.21484,28.92187 l 0.17188,0.15235 c 0.0187,-0.20125 0.0417,-0.39085 0.0156,0.0137 0.38361,0.36955 0.21754,0.23751 -0.006,0.0469 -0.0132,0.10519 -0.024,0.17508 -0.0254,0.16601 v 0.002 l 0.0215,0.0508 c -0.55072,9.3456 1.52436,18.92548 5.82421,27.72071 3.42857,7.01299 7.63198,12.56016 14.36329,19.19531 5.86411,5.78033 12.71911,10.7604 20.20117,15.00391 -5.26692,5.69593 -9.44231,12.45445 -11.90235,20.02734 -2.39595,7.37556 -3.25623,14.11979 -2.93359,22.46094 0.59124,15.28569 5.94153,28.7883 16.03711,39.00976 v 0.002 c 3.06456,3.10276 6.23081,5.65704 9.54102,7.74414 -0.88903,0.386 -1.79125,0.741 -2.6504,1.1914 -8.1245,4.25912 -14.3908,10.40204 -17.15429,19.65625 -1.21762,4.07755 -1.5474,7.99915 -1.24805,11.87891 0.29934,3.87976 0.0982,7.91396 5.40234,12.85547 0.48347,0.45003 2.67979,2.06384 4.36719,2.67578 1.68847,0.61228 2.8168,0.73155 3.88672,0.84766 2.13985,0.23244 4.40985,0.28882 8.69531,0.35156 8.57092,0.1251 24.72767,0.12695 56.60352,0.12695 h 64.79297 c 2.71355,1.2e-4 5.33718,-0.97283 7.39453,-2.74219 l 1.36914,-1.17773 c 0.76445,-0.65771 4.26209,-4.90511 4.9082,-8.08203 0.64611,-3.17692 0.4043,-4.49357 0.4043,-7.24805 0,-2.72213 0.0881,-4.61996 -0.42774,-7.34961 -0.51573,-2.72961 -1.62223,-4.95808 -2.4707,-6.63086 -3.61784,-7.13306 -9.42308,-12.39996 -16.58789,-15.80078 -0.44689,-0.21203 -0.91728,-0.36357 -1.37109,-0.55859 11.75539,-7.01787 20.29454,-19.22404 23.96484,-33.38672 5.25581,-20.28049 0.18067,-41.78804 -13.08789,-55.99219 20.06117,-11.28964 34.86145,-27.89418 39.03711,-47.46484 0.81849,-3.83675 1.05383,-7.90287 1.05273,-12.76172 0,0 3.36602,-3.83199 6.05274,-7.85352 2.68675,-4.02153 4.80552,-8.46851 5.83594,-13.57031 1.76825,-8.75482 -0.034,-17.03036 -4.46094,-24.58594 -3.46571,-5.91371 -7.17439,-9.36771 -12.98242,-12.63867 -10.99707,-6.19332 -24.30335,-6.24599 -34.94922,-0.0469 -13.73533,-7.7746 -30.54931,-12.84645 -48.24219,-15.20703 0.14362,-0.43832 0.32277,-1.01213 0.45313,-1.40625 0.68443,-2.06778 1.99425,-6.19086 3.01367,-9.47852 0.98105,-3.16392 2.23469,-7.10499 2.63672,-8.31055 0.0453,-0.13644 0.11688,-0.37794 0.16601,-0.52734 2.72527,0.64947 5.32724,1.27711 7.96875,1.88867 3.68039,0.85198 8.40963,1.96909 11.5332,2.7168 2.56691,8.33174 8.47,15.55841 16.38868,19.34765 3.28335,1.57115 8.25265,2.62696 12.70312,2.62696 7.61949,0 15.68552,-2.87115 21.15235,-7.81836 2.87947,-2.6058 5.52787,-6.19084 7.15039,-9.71094 8.20146,-17.79326 -2.32096,-39.22596 -21.41211,-43.62695 -1.87915,-0.43319 -3.77064,-0.6677 -5.64453,-0.72266 z M 284.45703,604.21289 c 7.2e-4,-0.0289 0.005,-0.0998 0.0117,-0.17578 -0.0519,-0.0445 -0.0744,-0.0631 -0.12891,-0.11133 z m -0.11719,-0.28711 -0.0391,-0.0918 c -0.4908,-0.39288 -0.23959,-0.1545 0.0391,0.0918 z m 0.12891,0.11133 c 0.005,0.004 0.009,0.005 0.0137,0.01 0.004,-0.0296 8e-4,-0.005 0.006,-0.0469 l -0.0156,-0.0137 c -0.002,0.0224 -0.002,0.0288 -0.004,0.0508 z M 469.52148,488.22852 c 1.15011,0.0337 2.29835,0.17668 3.42969,0.4375 12.60582,2.90596 19.0761,16.08624 13.66211,27.83203 -1.18095,2.56206 -2.33631,4.12809 -4.46094,6.05078 -4.01465,3.63307 -7.49068,4.88672 -13.54492,4.88672 -4.18299,0 -4.94651,-0.14803 -7.80859,-1.51758 -6.41484,-3.06962 -10.27182,-8.23127 -11.29297,-15.11133 l -0.50391,-3.39062 -5.44922,-1.31446 c -2.99705,-0.72317 -8.85294,-2.10319 -13.01367,-3.0664 -4.16073,-0.96325 -9.817,-2.3041 -12.57031,-2.97852 -2.75335,-0.67438 -5.19161,-1.11062 -5.41797,-0.9707 -0.22639,0.13984 -0.89656,1.8534 -1.48828,3.80859 -0.59169,1.95515 -1.47834,4.76189 -1.9707,6.23828 -0.49236,1.4764 -1.71212,5.3198 -2.71094,8.54102 -0.99882,3.22121 -2.32531,7.39441 -2.94727,9.27344 -1.72357,5.20743 -4.61914,14.32922 -4.61914,14.55078 0,0.10809 2.03259,0.34543 4.51563,0.52734 19.37163,1.41982 38.26272,6.68761 52.51758,14.58399 -9.63101,9.7647 -2.46769,18.75072 -10.48438,23.40039 -6.67374,0.065 -26.56723,-10.52241 -35.875,0.47851 -9.06482,2.96179 -19.54589,1.52072 -28.81836,1.19727 -9.58071,-6.73607 -24.7705,-8.11496 -33.37304,-4.06641 -12.72204,-4.22509 -12.18986,-14.78483 -15.08985,-21.56055 15.38789,-8.19409 37.04127,-13.83434 55.82617,-14.36718 l 3.61719,-0.10157 0.67773,-1.95312 c 0.69483,-2.00217 5.54331,-17.29258 6.73243,-21.23047 3.43347,-11.3701 8.11234,-25.12537 8.80664,-25.89258 1.27608,-1.41006 1.96604,-1.32251 15.5957,1.97656 13.29543,3.21816 26.75864,6.34381 26.84375,6.23243 0.0548,-0.0718 0.67494,-1.12652 1.37695,-2.34375 3.51731,-6.09899 10.04701,-9.92319 16.6875,-10.14844 0.38311,-0.013 0.76703,-0.0132 1.15039,-0.002 z m -162.0957,65.70312 c 2.83115,-0.0673 5.74318,0.3641 8.47852,1.23438 -12.78531,8.37186 -22.00973,21.85799 -27.45703,36.05273 -3.13287,-4.66239 -4.63621,-9.97954 -4.08789,-15.09961 1.10061,-10.27748 7.90447,-18.56098 17.55078,-21.36523 1.74849,-0.5083 3.61357,-0.77704 5.51562,-0.82227 z m 171.9082,0.0195 c 4.14439,-0.007 8.33553,1.013 12.03711,3.09766 2.97234,1.67395 7.12691,5.6993 8.76368,8.49219 2.85736,4.8757 4.13334,11.64587 3.13085,16.60937 -0.55136,2.72987 -1.78874,5.66274 -3.3789,8.30078 -2.20236,-6.23191 -7.16728,-12.20955 -10.00195,-17.74219 -4.79109,-6.61571 -10.58016,-13.38892 -17.69922,-17.68359 2.29548,-0.70522 4.71245,-1.07032 7.14843,-1.07422 z m -15.78125,47.99805 c 9.0969,0.10476 19.0274,5.84492 27.58789,4.83008 -0.0378,3.93047 -0.29234,7.08889 -0.79296,9.43554 -3.73092,17.48626 -19.54919,34.18357 -41.70118,44.15625 -3.83935,-8.27053 -8.64948,-16.27171 -12.32421,-24.30468 -6.38521,-15.74427 7.32647,-33.104 23.5039,-33.80469 1.22192,-0.23505 2.46668,-0.32701 3.72656,-0.3125 z m -135.24023,1.12109 c 7.66039,0.0468 15.09251,1.43325 19.56445,8.31641 6.23749,10.87151 5.22736,24.51374 -1.63086,34.86133 -2.54421,4.71802 -5.87499,9.16974 -8.60351,13.85156 -9.61744,-4.44239 -18.14294,-10.21575 -25.01758,-16.99219 -6.3137,-6.22352 -9.14303,-9.97808 -12.13672,-16.10156 -3.11466,-6.37093 -4.82871,-13.49389 -4.87305,-19.94141 6.20467,0.67171 14.30278,-1.75888 19.25196,-3.52929 4.1705,-0.0384 8.84907,-0.49292 13.44531,-0.46485 z m 52.20898,0.44922 h 26.86914 c 10.29907,6.36019 12.22001,26.10916 -1.02539,30.15235 -9.48869,-0.52173 -19.91291,3.90109 -28.64843,-2.375 -10.08196,-5.26156 -8.18265,-26.2497 2.80468,-27.77735 z m -12.36132,49.70313 c 14.44367,8.87002 34.81277,8.03949 56.46875,3.0332 9.98354,10.01631 10.37456,25.70439 10.33007,39.04687 -0.51954,32.06757 -12.11929,71.11203 -29.48242,98.37305 h -11.96484 c -6.22689,0 -9.38164,-0.007 -14.4707,-0.008 -2.12097,-7.29577 -9.6816,-18.94228 -11.47657,-26.02344 -13.87379,-30.69366 -15.05911,-56.6549 -16.58789,-79.66406 2.8182,-9.96987 3.18219,-19.44574 17.1836,-34.75781 z m 85.20312,19.63867 c 10.81245,11.15467 15.54701,29.35933 11.14844,46.33203 -2.68901,10.3761 -8.74189,19.35488 -16.39844,24.93555 4.52744,-16.88321 7.07062,-34.2165 6.36328,-51.80664 1.22904,-6.78685 0.585,-13.23472 -1.11328,-19.46094 z m -120.62305,1.27539 c -0.0409,0.56838 -0.0768,1.13915 -0.0762,1.72266 -2.97466,22.72114 -0.46274,45.57164 5.5,67.57226 -1.28551,-1.06152 -2.60487,-2.27267 -4.02929,-3.71484 -8.22457,-8.32713 -12.26295,-18.28251 -12.77344,-31.48047 -0.2945,-7.61363 0.2701,-12.00385 2.38672,-18.51953 1.88628,-5.80668 5.02353,-11.16514 8.99218,-15.58008 z m 109.10743,89.88086 c 2.01018,0.43869 3.94024,1.14322 6.18554,2.20898 4.80469,2.28057 9.15397,6.37965 11.33789,10.68555 1.61205,3.17832 1.67188,3.49166 1.67188,8.85156 0,5.48323 -0.0186,5.57244 -1.36914,6.73438 l -1.36914,1.17773 h -28.44531 c 0.10589,-0.36974 0.20466,-0.7432 0.27539,-1.13086 4.25364,-9.29676 8.23525,-18.82179 11.71289,-28.52734 z m -96.9961,0.125 c 2.63851,7.08167 5.57072,14.04002 8.75391,20.83008 0,0 0,0 2.3125,8.68359 -26.60095,-0.0507 -27.47641,-0.23862 -28.23047,-0.94141 -2.02121,-1.88303 -2.50892,-8.1992 -1.01758,-13.19336 1.40352,-4.70003 6.22408,-10.06397 11.55274,-12.85742 2.18844,-1.14724 4.36365,-1.97535 6.6289,-2.52148 z"
       id="path1118"
       inkscape:connector-curvature="0"
       sodipodi:nodetypes="cccccccsccccccccccccccccccscccccccccccccscccsscccccccccccscccscccccscssccccccccccccccccccsscccccccccscsccccccccccccscccccccccsccccsccccscccccsccccsscccccccccccccscccccccccccccccccccccsccccccccccc"
       transform="scale(0.26458333)" />
  </g>
  <g
     inkscape:groupmode="layer"
     id="layer4"
     inkscape:label="outercut"
     style="display:inline">
    <path
       style="color:#000000;font-style:normal;font-variant:normal;font-weight:normal;font-stretch:normal;font-size:medium;line-height:normal;font-family:sans-serif;font-variant-ligatures:normal;font-variant-position:normal;font-variant-caps:normal;font-variant-numeric:normal;font-variant-alternates:normal;font-feature-settings:normal;text-indent:0;text-align:start;text-decoration:none;text-decoration-line:none;text-decoration-style:solid;text-decoration-color:#000000;letter-spacing:normal;word-spacing:normal;text-transform:none;writing-mode:lr-tb;direction:ltr;text-orientation:mixed;dominant-baseline:auto;baseline-shift:baseline;text-anchor:start;white-space:normal;shape-padding:0;clip-rule:nonzero;display:inline;overflow:visible;visibility:visible;opacity:1;isolation:auto;mix-blend-mode:normal;color-interpolation:sRGB;color-interpolation-filters:linearRGB;solid-color:#000000;solid-opacity:1;vector-effect:none;fill:none;fill-opacity:1;fill-rule:nonzero;stroke:#ff0000;stroke-width:0.1;stroke-linecap:round;stroke-linejoin:round;stroke-miterlimit:4;stroke-dasharray:none;stroke-dashoffset:0;stroke-opacity:1;color-rendering:auto;image-rendering:auto;shape-rendering:auto;text-rendering:auto;enable-background:accumulate"
       d="m 123.38281,128.00977 c -1.94746,0.2182 -3.74428,1.37859 -4.8125,3.1289 -0.37234,-0.0832 -0.81803,-0.18405 -1.39648,-0.31836 -1.32836,-0.30842 -3.0944,-0.72749 -4.84961,-1.15234 -1.80523,-0.43696 -2.73255,-0.66655 -3.42188,-0.75391 -0.34466,-0.0437 -0.66784,-0.0665 -1.05468,0.0508 -0.38685,0.1173 -0.69769,0.40336 -0.82227,0.54102 -0.19829,0.21912 -0.19075,0.26864 -0.22851,0.34375 -0.0378,0.0751 -0.0689,0.14399 -0.10157,0.2207 -0.0654,0.15343 -0.13706,0.3346 -0.21875,0.55274 -0.16337,0.43626 -0.36629,1.01269 -0.59179,1.67578 -0.45102,1.32617 -0.99012,2.99527 -1.44922,4.51562 -0.28772,0.95281 -1.45299,4.61523 -1.68164,5.30469 l -0.1211,0.004 c -5.623522,0.15951 -12.016986,1.91307 -16.361326,4.53711 l -0.210937,0.1289 v 0 c -1.852933,-1.50948 -4.222054,-1.82886 -6.515625,-1.16211 -3.015261,0.87656 -5.162249,3.50368 -5.501953,6.67578 -0.270444,2.52537 0.962744,5.06049 3.117187,6.78516 l -0.04102,-0.0332 -0.03711,0.30664 c -0.268078,2.25975 0.238508,4.79981 1.34375,7.06055 0.838133,1.71436 1.732625,2.89774 3.447266,4.58789 2.023565,1.99465 4.559903,3.6271 7.380859,4.87695 -2.147949,1.48219 -3.894293,3.63838 -4.736328,6.23047 -0.589525,1.81476 -0.770357,3.22482 -0.689453,5.3164 0.143617,3.713 1.350579,6.72332 3.724609,9.12696 1.285961,1.30199 2.433481,2.10383 3.804688,2.60156 0.178156,0.0647 0.332468,0.12824 0.46875,0.18555 0.01162,0.0274 0.01677,0.0403 0.0293,0.0703 0.109071,0.26126 0.251671,0.61606 0.392578,0.97851 0.06048,0.15558 0.110046,0.29069 0.167969,0.44336 -1.229039,0.0905 -2.388098,0.36866 -3.484375,0.94336 -1.705867,0.89427 -3.135178,2.39578 -3.650391,4.1211 -0.247224,0.82789 -0.321233,1.69245 -0.259766,2.49023 0.06147,0.79778 0.139414,1.55009 0.861328,2.22266 0.0711,0.0663 0.324485,0.25282 0.542969,0.33203 0.218484,0.0792 0.395936,0.10597 0.607422,0.1289 0.422972,0.0459 1.015678,0.0657 2.132813,0.082 2.234268,0.0326 6.517513,0.0332 14.951176,0.0332 h 17.14258 c 0.28683,-5.3e-4 0.56398,-0.10377 0.78125,-0.29102 l 0.36328,-0.31054 c 0.18801,-0.16177 0.61301,-0.66115 0.70898,-1.13282 0.096,-0.47166 0.0703,-0.83183 0.0703,-1.55859 0,-0.71348 0.007,-1.1406 -0.082,-1.61133 -0.0889,-0.47073 -0.27246,-0.84407 -0.49023,-1.27344 -0.72962,-1.43853 -2.03363,-2.64716 -3.55469,-3.36914 -1.08938,-0.51708 -2.127,-0.66682 -3.28711,-0.73242 0.10693,-0.27799 0.21347,-0.50186 0.32617,-0.82422 0.0997,-0.28516 0.20702,-0.56286 0.29102,-0.75781 10e-4,-0.003 8.5e-4,-0.003 0.002,-0.006 0.0531,-0.0208 0.10299,-0.042 0.1543,-0.0586 3.60787,-1.16771 6.45549,-4.56636 7.52148,-8.67969 1.47414,-5.68824 -0.62688,-11.74091 -5.03711,-14.72851 6.20185,-2.74759 10.777,-7.3764 11.88477,-12.56836 0.17516,-0.82107 0.24232,-1.81305 0.24023,-3.05079 l -0.002,-1.04687 v 0 c 0.89692,-0.46381 1.30915,-1.08965 1.9043,-1.98047 0.59514,-0.89081 1.06705,-1.90608 1.27734,-2.94727 0.3463,-1.71457 -0.0465,-3.66659 -0.96875,-5.24023 -0.62653,-1.06907 -1.67895,-2.07355 -2.76562,-2.68555 -2.62549,-1.47862 -5.93858,-1.26531 -8.25782,0.54493 -0.11873,-0.0682 -0.22123,-0.1237 -0.35546,-0.20508 -3.99172,-2.42009 -9.35956,-3.96789 -14.9004,-4.41407 0.008,-0.0236 0.0119,-0.0366 0.0195,-0.0605 0.24721,-0.7787 0.552,-1.72545 0.77734,-2.40625 0.17121,-0.51726 0.52068,-1.61537 0.78711,-2.47461 0.26237,-0.84617 0.58824,-1.87425 0.70898,-2.23633 0.13788,-0.41345 0.37065,-1.15291 0.53125,-1.68359 0.002,-0.006 0.004,-0.009 0.006,-0.0156 0.13572,0.0298 0.23965,0.0475 0.38867,0.084 0.74068,0.18142 2.23361,0.53491 3.33985,0.79101 1.09658,0.25386 2.64879,0.61923 3.43359,0.8086 l 0.6543,0.1582 0.0137,0.0977 c 0.32182,2.16825 1.65747,3.94691 3.6582,4.9043 0.80179,0.38367 1.44883,0.51758 2.58399,0.51758 1.76756,0 3.17283,-0.50129 4.38867,-1.60156 0.64218,-0.58114 1.10577,-1.21123 1.46484,-1.99024 1.72746,-3.74776 -0.41384,-8.10805 -4.43554,-9.03515 -0.67275,-0.15509 -1.35502,-0.18796 -2.02149,-0.11328 z"
       id="path940"
       inkscape:connector-curvature="0"
       sodipodi:nodetypes="cccccccccccsccccccscccccccccccccccsccccssccccsccscccccsccccccccccccccccccccccccscsccc" />
    <path
       inkscape:connector-curvature="0"
       id="path942"
       d="m 86.700611,209.73929 c -0.534778,-0.49822 -0.663553,-2.16958 -0.268969,-3.49095 0.371347,-1.24355 1.646422,-2.66282 3.056295,-3.40192 1.119054,-0.58664 2.223637,-0.86293 3.516828,-0.87968 0.996388,-0.0129 1.042706,-0.0264 0.981644,-0.28722 -0.09598,-0.4099 -1.141134,-3.09832 -1.252564,-3.22193 -0.05319,-0.059 -0.488494,-0.24951 -0.967335,-0.42331 -1.200717,-0.43584 -2.143267,-1.08606 -3.359841,-2.3178 -2.176083,-2.20322 -3.244918,-4.83707 -3.379986,-8.32903 -0.07792,-2.01444 0.07185,-3.17578 0.631872,-4.89972 0.854724,-2.63115 2.674616,-4.92014 4.920831,-6.18925 0.480685,-0.27159 0.735362,-0.49482 0.710236,-0.62256 -0.02182,-0.11079 -0.497542,-0.39112 -1.072238,-0.6318 -2.908026,-1.21787 -5.474827,-2.89054 -7.501915,-4.88867 -1.670501,-1.64664 -2.419117,-2.63973 -3.211197,-4.2599 -1.008996,-2.06387 -1.463639,-4.42659 -1.230284,-6.39364 l 0.114895,-0.9685 -0.477871,-0.38254 c -1.879759,-1.50478 -2.893573,-3.67292 -2.674405,-5.71948 0.291207,-2.71925 2.091773,-4.91099 4.644024,-5.65295 1.850488,-0.53795 4.192979,-0.0614 5.689144,1.15744 l 0.388607,0.31657 0.93433,-0.56435 c 4.091899,-2.47156 10.382521,-4.21238 15.774518,-4.36533 l 0.95694,-0.0271 0.17925,-0.51654 c 0.18384,-0.52974 1.46696,-4.57542 1.78158,-5.61732 0.90844,-3.00834 2.14625,-6.64799 2.32995,-6.85098 0.33763,-0.37308 0.51986,-0.34998 4.12604,0.5229 3.51775,0.85147 7.08028,1.67864 7.1028,1.64917 0.0145,-0.019 0.17829,-0.29797 0.36403,-0.62003 1.14538,-1.98608 3.49842,-3.06082 5.62702,-2.57013 3.33529,0.76887 5.04712,4.25634 3.61467,7.36408 -0.31246,0.67788 -0.61784,1.0922 -1.17998,1.60091 -1.06221,0.96125 -1.98182,1.29306 -3.58367,1.29306 -1.10675,0 -1.30888,-0.0393 -2.06614,-0.40166 -1.69726,-0.81217 -2.71785,-2.17775 -2.98803,-3.9981 l -0.13318,-0.89731 -1.44175,-0.34789 c -0.79297,-0.19134 -2.34247,-0.55641 -3.44333,-0.81126 -1.10086,-0.25486 -2.59761,-0.60937 -3.32609,-0.78781 -0.72849,-0.17843 -1.37352,-0.29415 -1.43341,-0.25713 -0.0599,0.037 -0.23698,0.49054 -0.39354,1.00785 -0.15655,0.5173 -0.39123,1.26016 -0.5215,1.65079 -0.13027,0.39063 -0.45307,1.40756 -0.71734,2.25984 -0.26427,0.85228 -0.61513,1.95638 -0.77969,2.45354 -0.45603,1.3778 -1.22212,3.79083 -1.22212,3.84945 0,0.0286 0.53751,0.0915 1.19448,0.13963 5.47397,0.40121 10.80323,1.96366 14.64765,4.29445 0.50995,0.30918 0.97612,0.56214 1.03593,0.56214 0.0598,0 0.31085,-0.16611 0.55786,-0.36912 1.89982,-1.56144 4.81458,-1.77324 7.05316,-0.51252 0.78643,0.4429 1.88548,1.50804 2.31854,2.24699 0.75601,1.29003 1.09371,3.08141 0.82847,4.39467 -0.33745,1.67076 -1.64575,3.62903 -2.8356,4.24432 l -0.37087,0.19179 0.003,1.77831 c 0.002,1.18884 -0.0691,2.11643 -0.21458,2.79836 -1.01309,4.74821 -5.39391,9.27762 -11.49844,11.88843 -0.71023,0.30376 -1.30564,0.63251 -1.32313,0.73055 -0.0183,0.10252 0.3417,0.38768 0.84708,0.67102 4.35651,2.44247 6.56677,8.44563 5.13858,13.95656 -0.97385,3.7578 -3.61126,6.83065 -6.72867,7.83962 -0.28409,0.0919 -0.58409,0.22825 -0.66666,0.3029 -0.0826,0.0746 -0.3276,0.64332 -0.54451,1.26372 -0.21691,0.6204 -0.48348,1.30031 -0.59239,1.51091 -0.37265,0.72062 -0.30649,0.78314 0.8287,0.78314 1.32794,0 2.17263,0.18788 3.34369,0.74374 1.27124,0.6034 2.4222,1.68813 3.00003,2.8274 0.42652,0.84093 0.44216,0.92378 0.44216,2.34192 0,1.45077 -0.005,1.47426 -0.36232,1.78169 l -0.36231,0.31154 h -17.1431 c -16.867128,0 -17.147639,-0.004 -17.415809,-0.25393 z"
       style="display:inline;fill:none;stroke:#ff0000;stroke-width:0.1;stroke-miterlimit:4;stroke-dasharray:none;stroke-opacity:1" />
  </g>
  <g
     inkscape:groupmode="layer"
     id="layer2"
     inkscape:label="start"
     style="display:none">
    <path
       style="fill:none;stroke:#ff0000;stroke-width:0.12913378;stroke-opacity:1"
       d="m 86.700611,209.73929 c -0.534778,-0.49822 -0.663553,-2.16958 -0.268969,-3.49095 0.371347,-1.24355 1.646422,-2.66282 3.056295,-3.40192 1.119054,-0.58664 2.223637,-0.86293 3.516828,-0.87968 0.996388,-0.0129 1.042706,-0.0264 0.981644,-0.28722 -0.09598,-0.4099 -1.141134,-3.09832 -1.252564,-3.22193 -0.05319,-0.059 -0.488494,-0.24951 -0.967335,-0.42331 -1.200717,-0.43584 -2.143267,-1.08606 -3.359841,-2.3178 -2.176083,-2.20322 -3.244918,-4.83707 -3.379986,-8.32903 -0.07792,-2.01444 0.07185,-3.17578 0.631872,-4.89972 0.854724,-2.63115 2.674616,-4.92014 4.920831,-6.18925 0.480685,-0.27159 0.735362,-0.49482 0.710236,-0.62256 -0.02182,-0.11079 -0.497542,-0.39112 -1.072238,-0.6318 -2.908026,-1.21787 -5.474827,-2.89054 -7.501915,-4.88867 -1.670501,-1.64664 -2.419117,-2.63973 -3.211197,-4.2599 -1.008996,-2.06387 -1.463639,-4.42659 -1.230284,-6.39364 l 0.114895,-0.9685 -0.477871,-0.38254 c -1.879759,-1.50478 -2.893573,-3.67292 -2.674405,-5.71948 0.291207,-2.71925 2.091773,-4.91099 4.644024,-5.65295 1.850488,-0.53795 4.192979,-0.0614 5.689144,1.15744 l 0.388607,0.31657 0.93433,-0.56435 c 4.091899,-2.47156 10.382521,-4.21238 15.774518,-4.36533 l 0.95694,-0.0271 0.17925,-0.51654 c 0.18384,-0.52974 1.46696,-4.57542 1.78158,-5.61732 0.90844,-3.00834 2.14625,-6.64799 2.32995,-6.85098 0.33763,-0.37308 0.51986,-0.34998 4.12604,0.5229 3.51775,0.85147 7.08028,1.67864 7.1028,1.64917 0.0145,-0.019 0.17829,-0.29797 0.36403,-0.62003 1.14538,-1.98608 3.49842,-3.06082 5.62702,-2.57013 3.33529,0.76887 5.04712,4.25634 3.61467,7.36408 -0.31246,0.67788 -0.61784,1.0922 -1.17998,1.60091 -1.06221,0.96125 -1.98182,1.29306 -3.58367,1.29306 -1.10675,0 -1.30888,-0.0393 -2.06614,-0.40166 -1.69726,-0.81217 -2.71785,-2.17775 -2.98803,-3.9981 l -0.13318,-0.89731 -1.44175,-0.34789 c -0.79297,-0.19134 -2.34247,-0.55641 -3.44333,-0.81126 -1.10086,-0.25486 -2.59761,-0.60937 -3.32609,-0.78781 -0.72849,-0.17843 -1.37352,-0.29415 -1.43341,-0.25713 -0.0599,0.037 -0.23698,0.49054 -0.39354,1.00785 -0.15655,0.5173 -0.39123,1.26016 -0.5215,1.65079 -0.13027,0.39063 -0.45307,1.40756 -0.71734,2.25984 -0.26427,0.85228 -0.61513,1.95638 -0.77969,2.45354 -0.45603,1.3778 -1.22212,3.79083 -1.22212,3.84945 0,0.0286 0.53751,0.0915 1.19448,0.13963 5.47397,0.40121 10.80323,1.96366 14.64765,4.29445 0.50995,0.30918 0.97612,0.56214 1.03593,0.56214 0.0598,0 0.31085,-0.16611 0.55786,-0.36912 1.89982,-1.56144 4.81458,-1.77324 7.05316,-0.51252 0.78643,0.4429 1.88548,1.50804 2.31854,2.24699 0.75601,1.29003 1.09371,3.08141 0.82847,4.39467 -0.33745,1.67076 -1.64575,3.62903 -2.8356,4.24432 l -0.37087,0.19179 0.003,1.77831 c 0.002,1.18884 -0.0691,2.11643 -0.21458,2.79836 -1.01309,4.74821 -5.39391,9.27762 -11.49844,11.88843 -0.71023,0.30376 -1.30564,0.63251 -1.32313,0.73055 -0.0183,0.10252 0.3417,0.38768 0.84708,0.67102 4.35651,2.44247 6.56677,8.44563 5.13858,13.95656 -0.97385,3.7578 -3.61126,6.83065 -6.72867,7.83962 -0.28409,0.0919 -0.58409,0.22825 -0.66666,0.3029 -0.0826,0.0746 -0.3276,0.64332 -0.54451,1.26372 -0.21691,0.6204 -0.48348,1.30031 -0.59239,1.51091 -0.37265,0.72062 -0.30649,0.78314 0.8287,0.78314 1.32794,0 2.17263,0.18788 3.34369,0.74374 1.27124,0.6034 2.4222,1.68813 3.00003,2.8274 0.42652,0.84093 0.44216,0.92378 0.44216,2.34192 0,1.45077 -0.005,1.47426 -0.36232,1.78169 l -0.36231,0.31154 h -17.1431 c -16.867128,0 -17.147639,-0.004 -17.415809,-0.25393 z"
       id="path860"
       inkscape:connector-curvature="0" />
    <path
       style="fill:none;fill-opacity:1;stroke:#ff0000;stroke-width:0.12913378;stroke-opacity:1"
       d="m 101.83942,171.43468 c -3.158342,-0.448 -4.98751,-1.12379 -6.498412,-2.40084 -0.848203,-0.71693 -0.78923,-1.68291 0.107213,-1.75621 0.36046,-0.0295 0.593135,0.0703 1.158509,0.49668 1.561148,1.1774 2.988698,1.64538 5.65238,1.85296 4.46653,0.34807 7.81286,-0.32517 9.71685,-1.95492 0.41922,-0.35884 0.60011,-0.431 0.99786,-0.39807 0.378,0.0313 0.52213,0.11639 0.64947,0.38343 0.31137,0.65289 -0.14158,1.25342 -1.61973,2.14749 -1.93202,1.1686 -3.72086,1.57221 -7.25863,1.63777 -1.38496,0.0257 -2.69244,0.0219 -2.90551,-0.008 z"
       id="path846"
       inkscape:connector-curvature="0" />
    <path
       style="fill:none;fill-opacity:1;stroke:#ff0000;stroke-width:0.12913378;stroke-opacity:1"
       d="m 94.561364,161.04539 c -0.309707,-0.0629 -0.834952,-0.28886 -1.167217,-0.50207 -1.571665,-1.00853 -2.189199,-3.0519 -1.438619,-4.76025 0.361954,-0.82382 1.351241,-1.74028 2.185393,-2.0245 1.301722,-0.44355 2.884403,-0.0993 3.861918,0.83997 0.770898,0.74076 1.089546,1.43452 1.160955,2.52769 0.05225,0.79986 0.01425,1.01901 -0.297002,1.71255 -0.749877,1.67094 -2.507725,2.57188 -4.305428,2.20661 z"
       id="path844"
       inkscape:connector-curvature="0" />
    <path
       style="fill:none;fill-opacity:1;stroke:#ff0000;stroke-width:0.12913378;stroke-opacity:1"
       d="m 112.27008,161.04832 c -0.64842,-0.13242 -1.52377,-0.62328 -2.00166,-1.12246 -0.18926,-0.19768 -0.49253,-0.69521 -0.67395,-1.10562 -0.62461,-1.41301 -0.3695,-2.83344 0.72372,-4.0296 1.41729,-1.55075 3.69017,-1.65987 5.25569,-0.25233 1.99436,1.79309 1.52398,5.09685 -0.88565,6.22037 -0.69724,0.32509 -1.67251,0.44191 -2.41815,0.28964 z"
       id="path842"
       inkscape:connector-curvature="0" />
    <path
       style="fill:none;stroke:#ff0000;stroke-width:0.12913378;stroke-opacity:1"
       d="m 125.16297,137.6674 c 0.82899,-0.21098 1.82525,-1.18576 2.18858,-2.14138 0.0741,-0.19479 0.13624,-0.68649 0.13818,-1.09267 0.007,-1.41465 -0.88427,-2.72783 -2.17983,-3.21256 -2.91736,-1.09153 -5.66636,1.81859 -4.36282,4.61852 0.48725,1.04659 1.20969,1.64664 2.30473,1.9143 0.66101,0.16157 0.99714,0.14641 1.91116,-0.0862 z"
       id="path834"
       inkscape:connector-curvature="0" />
    <path
       style="fill:none;stroke:#ff0000;stroke-width:0.12913376px;stroke-linecap:butt;stroke-linejoin:miter;stroke-opacity:1"
       d="m 85.958382,148.25244 c 0,0 -5.86248,3.82032 -7.569499,10.28097"
       id="path862"
       inkscape:connector-curvature="0"
       sodipodi:nodetypes="cc" />
    <path
       style="fill:none;stroke:#ff0000;stroke-width:0.12913376px;stroke-linecap:butt;stroke-linejoin:miter;stroke-opacity:1"
       d="m 122.40224,148.28169 c 0,0 5.59385,2.61241 7.54712,10.18172"
       id="path866"
       inkscape:connector-curvature="0"
       sodipodi:nodetypes="cc" />
    <path
       style="fill:none;stroke:#ff0000;stroke-width:0.12913376px;stroke-linecap:butt;stroke-linejoin:miter;stroke-opacity:1"
       d="m 91.271618,175.68562 c 0,0 -2.931287,10.60694 1.45004,22.80547"
       id="path868"
       inkscape:connector-curvature="0"
       sodipodi:nodetypes="cc" />
    <path
       style="fill:none;stroke:#ff0000;stroke-width:0.12913376px;stroke-linecap:butt;stroke-linejoin:miter;stroke-opacity:1"
       d="m 116.91218,175.66117 c 0,0 2.37262,10.68106 -1.40229,22.76262"
       id="path870"
       inkscape:connector-curvature="0"
       sodipodi:nodetypes="cc" />
    <path
       style="fill:none;stroke:#ff0000;stroke-width:0.12913376px;stroke-linecap:butt;stroke-linejoin:miter;stroke-opacity:1"
       d="m 94.027265,201.88873 c 0,0 1.719925,5.54949 3.931883,8.05496"
       id="path872"
       inkscape:connector-curvature="0"
       sodipodi:nodetypes="cc" />
    <path
       style="fill:none;stroke:#ff0000;stroke-width:0.12913376px;stroke-linecap:butt;stroke-linejoin:miter;stroke-opacity:1"
       d="m 114.18099,201.79089 c 0,0 -1.90332,5.90263 -3.82015,8.14325"
       id="path874"
       inkscape:connector-curvature="0"
       sodipodi:nodetypes="cc" />
  </g>
  <g
     inkscape:groupmode="layer"
     id="layer5"
     inkscape:label="layer 2"
     style="display:none">
    <path
       inkscape:connector-curvature="0"
       id="path950"
       d="m 101.83942,171.43468 c -3.158342,-0.448 -4.98751,-1.12379 -6.498412,-2.40084 -0.848203,-0.71693 -0.78923,-1.68291 0.107213,-1.75621 0.36046,-0.0295 0.593135,0.0703 1.158509,0.49668 1.561148,1.1774 2.988698,1.64538 5.65238,1.85296 4.46653,0.34807 7.81286,-0.32517 9.71685,-1.95492 0.41922,-0.35884 0.60011,-0.431 0.99786,-0.39807 0.378,0.0313 0.52213,0.11639 0.64947,0.38343 0.31137,0.65289 -0.14158,1.25342 -1.61973,2.14749 -1.93202,1.1686 -3.72086,1.57221 -7.25863,1.63777 -1.38496,0.0257 -2.69244,0.0219 -2.90551,-0.008 z"
       style="display:inline;fill:#ff0000;fill-opacity:1;stroke:none;stroke-width:0.12913378;stroke-opacity:1" />
    <path
       inkscape:connector-curvature="0"
       id="path952"
       d="m 94.561364,161.04539 c -0.309707,-0.0629 -0.834952,-0.28886 -1.167217,-0.50207 -1.571665,-1.00853 -2.189199,-3.0519 -1.438619,-4.76025 0.361954,-0.82382 1.351241,-1.74028 2.185393,-2.0245 1.301722,-0.44355 2.884403,-0.0993 3.861918,0.83997 0.770898,0.74076 1.089546,1.43452 1.160955,2.52769 0.05225,0.79986 0.01425,1.01901 -0.297002,1.71255 -0.749877,1.67094 -2.507725,2.57188 -4.305428,2.20661 z"
       style="display:inline;fill:#ff0000;fill-opacity:1;stroke:none;stroke-width:0.12913378;stroke-opacity:1" />
    <path
       inkscape:connector-curvature="0"
       id="path954"
       d="m 112.27008,161.04832 c -0.64842,-0.13242 -1.52377,-0.62328 -2.00166,-1.12246 -0.18926,-0.19768 -0.49253,-0.69521 -0.67395,-1.10562 -0.62461,-1.41301 -0.3695,-2.83344 0.72372,-4.0296 1.41729,-1.55075 3.69017,-1.65987 5.25569,-0.25233 1.99436,1.79309 1.52398,5.09685 -0.88565,6.22037 -0.69724,0.32509 -1.67251,0.44191 -2.41815,0.28964 z"
       style="display:inline;fill:#ff0000;fill-opacity:1;stroke:none;stroke-width:0.12913378;stroke-opacity:1" />
    <path
       style="color:#000000;font-style:normal;font-variant:normal;font-weight:normal;font-stretch:normal;font-size:medium;line-height:normal;font-family:sans-serif;font-variant-ligatures:normal;font-variant-position:normal;font-variant-caps:normal;font-variant-numeric:normal;font-variant-alternates:normal;font-feature-settings:normal;text-indent:0;text-align:start;text-decoration:none;text-decoration-line:none;text-decoration-style:solid;text-decoration-color:#000000;letter-spacing:normal;word-spacing:normal;text-transform:none;writing-mode:lr-tb;direction:ltr;text-orientation:mixed;dominant-baseline:auto;baseline-shift:baseline;text-anchor:start;white-space:normal;shape-padding:0;clip-rule:nonzero;display:inline;overflow:visible;visibility:visible;opacity:1;isolation:auto;mix-blend-mode:normal;color-interpolation:sRGB;color-interpolation-filters:linearRGB;solid-color:#000000;solid-opacity:1;vector-effect:none;fill:#ff0000;fill-opacity:1;fill-rule:nonzero;stroke:none;stroke-width:0.1;stroke-linecap:round;stroke-linejoin:miter;stroke-miterlimit:4;stroke-dasharray:none;stroke-dashoffset:0;stroke-opacity:1;color-rendering:auto;image-rendering:auto;shape-rendering:auto;text-rendering:auto;enable-background:accumulate"
       d="M 85.953125,147.64844 A 0.60006002,0.60006002 0 0 0 85.630859,147.75 c 0,0 -6.043499,3.89866 -7.822265,10.63086 a 0.60006002,0.60006002 0 1 0 1.160156,0.30664 c 1.635272,-6.18911 7.316406,-9.93164 7.316406,-9.93164 a 0.60006002,0.60006002 0 0 0 -0.332031,-1.10742 z"
       id="path956"
       inkscape:connector-curvature="0" />
    <path
       style="color:#000000;font-style:normal;font-variant:normal;font-weight:normal;font-stretch:normal;font-size:medium;line-height:normal;font-family:sans-serif;font-variant-ligatures:normal;font-variant-position:normal;font-variant-caps:normal;font-variant-numeric:normal;font-variant-alternates:normal;font-feature-settings:normal;text-indent:0;text-align:start;text-decoration:none;text-decoration-line:none;text-decoration-style:solid;text-decoration-color:#000000;letter-spacing:normal;word-spacing:normal;text-transform:none;writing-mode:lr-tb;direction:ltr;text-orientation:mixed;dominant-baseline:auto;baseline-shift:baseline;text-anchor:start;white-space:normal;shape-padding:0;clip-rule:nonzero;display:inline;overflow:visible;visibility:visible;opacity:1;isolation:auto;mix-blend-mode:normal;color-interpolation:sRGB;color-interpolation-filters:linearRGB;solid-color:#000000;solid-opacity:1;vector-effect:none;fill:#ff0000;fill-opacity:1;fill-rule:nonzero;stroke:none;stroke-width:0.1;stroke-linecap:round;stroke-linejoin:miter;stroke-miterlimit:4;stroke-dasharray:none;stroke-dashoffset:0;stroke-opacity:1;color-rendering:auto;image-rendering:auto;shape-rendering:auto;text-rendering:auto;enable-background:accumulate"
       d="m 122.36523,147.67969 a 0.60006002,0.60006002 0 0 0 -0.21679,1.14648 c 0,0 5.32834,2.45382 7.2207,9.78711 a 0.60006002,0.60006002 0 1 0 1.16211,-0.29883 c -2.01418,-7.80533 -7.875,-10.57617 -7.875,-10.57617 a 0.60006002,0.60006002 0 0 0 -0.29102,-0.0586 z"
       id="path958"
       inkscape:connector-curvature="0" />
    <path
       style="color:#000000;font-style:normal;font-variant:normal;font-weight:normal;font-stretch:normal;font-size:medium;line-height:normal;font-family:sans-serif;font-variant-ligatures:normal;font-variant-position:normal;font-variant-caps:normal;font-variant-numeric:normal;font-variant-alternates:normal;font-feature-settings:normal;text-indent:0;text-align:start;text-decoration:none;text-decoration-line:none;text-decoration-style:solid;text-decoration-color:#000000;letter-spacing:normal;word-spacing:normal;text-transform:none;writing-mode:lr-tb;direction:ltr;text-orientation:mixed;dominant-baseline:auto;baseline-shift:baseline;text-anchor:start;white-space:normal;shape-padding:0;clip-rule:nonzero;display:inline;overflow:visible;visibility:visible;opacity:1;isolation:auto;mix-blend-mode:normal;color-interpolation:sRGB;color-interpolation-filters:linearRGB;solid-color:#000000;solid-opacity:1;vector-effect:none;fill:#ff0000;fill-opacity:1;fill-rule:nonzero;stroke:none;stroke-width:0.1;stroke-linecap:round;stroke-linejoin:miter;stroke-miterlimit:4;stroke-dasharray:none;stroke-dashoffset:0;stroke-opacity:1;color-rendering:auto;image-rendering:auto;shape-rendering:auto;text-rendering:auto;enable-background:accumulate"
       d="m 91.246094,175.07812 a 0.60006002,0.60006002 0 0 0 -0.552735,0.44727 c 0,0 -2.984617,10.78518 1.462891,23.16797 a 0.60047909,0.60047909 0 1 0 1.130859,-0.4043 c -4.315146,-12.01427 -1.4375,-22.44336 -1.4375,-22.44336 a 0.60006002,0.60006002 0 0 0 -0.603515,-0.76758 z"
       id="path960"
       inkscape:connector-curvature="0" />
    <path
       style="color:#000000;font-style:normal;font-variant:normal;font-weight:normal;font-stretch:normal;font-size:medium;line-height:normal;font-family:sans-serif;font-variant-ligatures:normal;font-variant-position:normal;font-variant-caps:normal;font-variant-numeric:normal;font-variant-alternates:normal;font-feature-settings:normal;text-indent:0;text-align:start;text-decoration:none;text-decoration-line:none;text-decoration-style:solid;text-decoration-color:#000000;letter-spacing:normal;word-spacing:normal;text-transform:none;writing-mode:lr-tb;direction:ltr;text-orientation:mixed;dominant-baseline:auto;baseline-shift:baseline;text-anchor:start;white-space:normal;shape-padding:0;clip-rule:nonzero;display:inline;overflow:visible;visibility:visible;opacity:1;isolation:auto;mix-blend-mode:normal;color-interpolation:sRGB;color-interpolation-filters:linearRGB;solid-color:#000000;solid-opacity:1;vector-effect:none;fill:#ff0000;fill-opacity:1;fill-rule:nonzero;stroke:none;stroke-width:0.1;stroke-linecap:round;stroke-linejoin:miter;stroke-miterlimit:4;stroke-dasharray:none;stroke-dashoffset:0;stroke-opacity:1;color-rendering:auto;image-rendering:auto;shape-rendering:auto;text-rendering:auto;enable-background:accumulate"
       d="m 116.89062,175.05273 a 0.60006002,0.60006002 0 0 0 -0.56445,0.73829 c 0,0 2.33487,10.53595 -1.38867,22.45312 a 0.60006002,0.60006002 0 1 0 1.14453,0.35938 c 3.82628,-12.24596 1.41602,-23.07227 1.41602,-23.07227 a 0.60006002,0.60006002 0 0 0 -0.60743,-0.47852 z"
       id="path962"
       inkscape:connector-curvature="0" />
    <path
       style="color:#000000;font-style:normal;font-variant:normal;font-weight:normal;font-stretch:normal;font-size:medium;line-height:normal;font-family:sans-serif;font-variant-ligatures:normal;font-variant-position:normal;font-variant-caps:normal;font-variant-numeric:normal;font-variant-alternates:normal;font-feature-settings:normal;text-indent:0;text-align:start;text-decoration:none;text-decoration-line:none;text-decoration-style:solid;text-decoration-color:#000000;letter-spacing:normal;word-spacing:normal;text-transform:none;writing-mode:lr-tb;direction:ltr;text-orientation:mixed;dominant-baseline:auto;baseline-shift:baseline;text-anchor:start;white-space:normal;shape-padding:0;clip-rule:nonzero;display:inline;overflow:visible;visibility:visible;opacity:1;isolation:auto;mix-blend-mode:normal;color-interpolation:sRGB;color-interpolation-filters:linearRGB;solid-color:#000000;solid-opacity:1;vector-effect:none;fill:#ff0000;fill-opacity:1;fill-rule:nonzero;stroke:none;stroke-width:0.1;stroke-linecap:round;stroke-linejoin:miter;stroke-miterlimit:4;stroke-dasharray:none;stroke-dashoffset:0;stroke-opacity:1;color-rendering:auto;image-rendering:auto;shape-rendering:auto;text-rendering:auto;enable-background:accumulate"
       d="m 94.015625,201.28125 a 0.60006002,0.60006002 0 0 0 -0.560547,0.78516 c 0,0 0.436555,1.41295 1.154297,3.14062 0.717742,1.72768 1.700014,3.77316 2.900391,5.13281 a 0.60006002,0.60006002 0 1 0 0.898437,-0.79296 c -1.011581,-1.14582 -1.994243,-3.12735 -2.689453,-4.80079 -0.69521,-1.67343 -1.119141,-3.03515 -1.119141,-3.03515 a 0.60006002,0.60006002 0 0 0 -0.583984,-0.42969 z"
       id="path964"
       inkscape:connector-curvature="0" />
    <path
       style="color:#000000;font-style:normal;font-variant:normal;font-weight:normal;font-stretch:normal;font-size:medium;line-height:normal;font-family:sans-serif;font-variant-ligatures:normal;font-variant-position:normal;font-variant-caps:normal;font-variant-numeric:normal;font-variant-alternates:normal;font-feature-settings:normal;text-indent:0;text-align:start;text-decoration:none;text-decoration-line:none;text-decoration-style:solid;text-decoration-color:#000000;letter-spacing:normal;word-spacing:normal;text-transform:none;writing-mode:lr-tb;direction:ltr;text-orientation:mixed;dominant-baseline:auto;baseline-shift:baseline;text-anchor:start;white-space:normal;shape-padding:0;clip-rule:nonzero;display:inline;overflow:visible;visibility:visible;opacity:1;isolation:auto;mix-blend-mode:normal;color-interpolation:sRGB;color-interpolation-filters:linearRGB;solid-color:#000000;solid-opacity:1;vector-effect:none;fill:#ff0000;fill-opacity:1;fill-rule:nonzero;stroke:none;stroke-width:0.1;stroke-linecap:round;stroke-linejoin:miter;stroke-miterlimit:4;stroke-dasharray:none;stroke-dashoffset:0;stroke-opacity:1;color-rendering:auto;image-rendering:auto;shape-rendering:auto;text-rendering:auto;enable-background:accumulate"
       d="m 114.18164,201.18359 a 0.60006002,0.60006002 0 0 0 -0.57226,0.42383 c 0,0 -0.4696,1.45447 -1.17579,3.1875 -0.70618,1.73303 -1.67629,3.75292 -2.52929,4.75 a 0.60006002,0.60006002 0 1 0 0.91211,0.7793 c 1.06383,-1.24354 2.00383,-3.29773 2.72851,-5.07617 0.72469,-1.77844 1.20703,-3.27344 1.20703,-3.27344 a 0.60006002,0.60006002 0 0 0 -0.57031,-0.79102 z"
       id="path966"
       inkscape:connector-curvature="0" />
  </g>
  <g
     inkscape:groupmode="layer"
     id="layer6"
     inkscape:label="details"
     style="display:inline">
    <path
       style="display:inline;fill:none;fill-opacity:1;stroke:#000000;stroke-width:0.1;stroke-miterlimit:4;stroke-dasharray:none;stroke-opacity:1"
       d="m 101.83942,171.43468 c -3.158342,-0.448 -4.98751,-1.12379 -6.498412,-2.40084 -0.848203,-0.71693 -0.78923,-1.68291 0.107213,-1.75621 0.36046,-0.0295 0.593135,0.0703 1.158509,0.49668 1.561148,1.1774 2.988698,1.64538 5.65238,1.85296 4.46653,0.34807 7.81286,-0.32517 9.71685,-1.95492 0.41922,-0.35884 0.60011,-0.431 0.99786,-0.39807 0.378,0.0313 0.52213,0.11639 0.64947,0.38343 0.31137,0.65289 -0.14158,1.25342 -1.61973,2.14749 -1.93202,1.1686 -3.72086,1.57221 -7.25863,1.63777 -1.38496,0.0257 -2.69244,0.0219 -2.90551,-0.008 z"
       id="path990"
       inkscape:connector-curvature="0" />
    <path
       style="display:inline;fill:none;fill-opacity:1;stroke:#000000;stroke-width:0.1;stroke-miterlimit:4;stroke-dasharray:none;stroke-opacity:1"
       d="m 94.561364,161.04539 c -0.309707,-0.0629 -0.834952,-0.28886 -1.167217,-0.50207 -1.571665,-1.00853 -2.189199,-3.0519 -1.438619,-4.76025 0.361954,-0.82382 1.351241,-1.74028 2.185393,-2.0245 1.301722,-0.44355 2.884403,-0.0993 3.861918,0.83997 0.770898,0.74076 1.089546,1.43452 1.160955,2.52769 0.05225,0.79986 0.01425,1.01901 -0.297002,1.71255 -0.749877,1.67094 -2.507725,2.57188 -4.305428,2.20661 z"
       id="path992"
       inkscape:connector-curvature="0" />
    <path
       style="display:inline;fill:none;fill-opacity:1;stroke:#000000;stroke-width:0.1;stroke-miterlimit:4;stroke-dasharray:none;stroke-opacity:1"
       d="m 112.27008,161.04832 c -0.64842,-0.13242 -1.52377,-0.62328 -2.00166,-1.12246 -0.18926,-0.19768 -0.49253,-0.69521 -0.67395,-1.10562 -0.62461,-1.41301 -0.3695,-2.83344 0.72372,-4.0296 1.41729,-1.55075 3.69017,-1.65987 5.25569,-0.25233 1.99436,1.79309 1.52398,5.09685 -0.88565,6.22037 -0.69724,0.32509 -1.67251,0.44191 -2.41815,0.28964 z"
       id="path994"
       inkscape:connector-curvature="0" />
    <path
       inkscape:connector-curvature="0"
       id="path996"
       d="M 85.953125,147.64844 A 0.60006002,0.60006002 0 0 0 85.630859,147.75 c 0,0 -6.043499,3.89866 -7.822265,10.63086 a 0.60006002,0.60006002 0 1 0 1.160156,0.30664 c 1.635272,-6.18911 7.316406,-9.93164 7.316406,-9.93164 a 0.60006002,0.60006002 0 0 0 -0.332031,-1.10742 z"
       style="color:#000000;font-style:normal;font-variant:normal;font-weight:normal;font-stretch:normal;font-size:medium;line-height:normal;font-family:sans-serif;font-variant-ligatures:normal;font-variant-position:normal;font-variant-caps:normal;font-variant-numeric:normal;font-variant-alternates:normal;font-feature-settings:normal;text-indent:0;text-align:start;text-decoration:none;text-decoration-line:none;text-decoration-style:solid;text-decoration-color:#000000;letter-spacing:normal;word-spacing:normal;text-transform:none;writing-mode:lr-tb;direction:ltr;text-orientation:mixed;dominant-baseline:auto;baseline-shift:baseline;text-anchor:start;white-space:normal;shape-padding:0;clip-rule:nonzero;display:inline;overflow:visible;visibility:visible;opacity:1;isolation:auto;mix-blend-mode:normal;color-interpolation:sRGB;color-interpolation-filters:linearRGB;solid-color:#000000;solid-opacity:1;vector-effect:none;fill:none;fill-opacity:1;fill-rule:nonzero;stroke:#000000;stroke-width:0.1;stroke-linecap:round;stroke-linejoin:miter;stroke-miterlimit:4;stroke-dasharray:none;stroke-dashoffset:0;stroke-opacity:1;color-rendering:auto;image-rendering:auto;shape-rendering:auto;text-rendering:auto;enable-background:accumulate" />
    <path
       inkscape:connector-curvature="0"
       id="path998"
       d="m 122.36523,147.67969 a 0.60006002,0.60006002 0 0 0 -0.21679,1.14648 c 0,0 5.32834,2.45382 7.2207,9.78711 a 0.60006002,0.60006002 0 1 0 1.16211,-0.29883 c -2.01418,-7.80533 -7.875,-10.57617 -7.875,-10.57617 a 0.60006002,0.60006002 0 0 0 -0.29102,-0.0586 z"
       style="color:#000000;font-style:normal;font-variant:normal;font-weight:normal;font-stretch:normal;font-size:medium;line-height:normal;font-family:sans-serif;font-variant-ligatures:normal;font-variant-position:normal;font-variant-caps:normal;font-variant-numeric:normal;font-variant-alternates:normal;font-feature-settings:normal;text-indent:0;text-align:start;text-decoration:none;text-decoration-line:none;text-decoration-style:solid;text-decoration-color:#000000;letter-spacing:normal;word-spacing:normal;text-transform:none;writing-mode:lr-tb;direction:ltr;text-orientation:mixed;dominant-baseline:auto;baseline-shift:baseline;text-anchor:start;white-space:normal;shape-padding:0;clip-rule:nonzero;display:inline;overflow:visible;visibility:visible;opacity:1;isolation:auto;mix-blend-mode:normal;color-interpolation:sRGB;color-interpolation-filters:linearRGB;solid-color:#000000;solid-opacity:1;vector-effect:none;fill:none;fill-opacity:1;fill-rule:nonzero;stroke:#000000;stroke-width:0.1;stroke-linecap:round;stroke-linejoin:miter;stroke-miterlimit:4;stroke-dasharray:none;stroke-dashoffset:0;stroke-opacity:1;color-rendering:auto;image-rendering:auto;shape-rendering:auto;text-rendering:auto;enable-background:accumulate" />
    <path
       inkscape:connector-curvature="0"
       id="path1000"
       d="m 91.246094,175.07812 a 0.60006002,0.60006002 0 0 0 -0.552735,0.44727 c 0,0 -2.984617,10.78518 1.462891,23.16797 a 0.60047909,0.60047909 0 1 0 1.130859,-0.4043 c -4.315146,-12.01427 -1.4375,-22.44336 -1.4375,-22.44336 a 0.60006002,0.60006002 0 0 0 -0.603515,-0.76758 z"
       style="color:#000000;font-style:normal;font-variant:normal;font-weight:normal;font-stretch:normal;font-size:medium;line-height:normal;font-family:sans-serif;font-variant-ligatures:normal;font-variant-position:normal;font-variant-caps:normal;font-variant-numeric:normal;font-variant-alternates:normal;font-feature-settings:normal;text-indent:0;text-align:start;text-decoration:none;text-decoration-line:none;text-decoration-style:solid;text-decoration-color:#000000;letter-spacing:normal;word-spacing:normal;text-transform:none;writing-mode:lr-tb;direction:ltr;text-orientation:mixed;dominant-baseline:auto;baseline-shift:baseline;text-anchor:start;white-space:normal;shape-padding:0;clip-rule:nonzero;display:inline;overflow:visible;visibility:visible;opacity:1;isolation:auto;mix-blend-mode:normal;color-interpolation:sRGB;color-interpolation-filters:linearRGB;solid-color:#000000;solid-opacity:1;vector-effect:none;fill:none;fill-opacity:1;fill-rule:nonzero;stroke:#000000;stroke-width:0.1;stroke-linecap:round;stroke-linejoin:miter;stroke-miterlimit:4;stroke-dasharray:none;stroke-dashoffset:0;stroke-opacity:1;color-rendering:auto;image-rendering:auto;shape-rendering:auto;text-rendering:auto;enable-background:accumulate" />
    <path
       inkscape:connector-curvature="0"
       id="path1002"
       d="m 116.89062,175.05273 a 0.60006002,0.60006002 0 0 0 -0.56445,0.73829 c 0,0 2.33487,10.53595 -1.38867,22.45312 a 0.60006002,0.60006002 0 1 0 1.14453,0.35938 c 3.82628,-12.24596 1.41602,-23.07227 1.41602,-23.07227 a 0.60006002,0.60006002 0 0 0 -0.60743,-0.47852 z"
       style="color:#000000;font-style:normal;font-variant:normal;font-weight:normal;font-stretch:normal;font-size:medium;line-height:normal;font-family:sans-serif;font-variant-ligatures:normal;font-variant-position:normal;font-variant-caps:normal;font-variant-numeric:normal;font-variant-alternates:normal;font-feature-settings:normal;text-indent:0;text-align:start;text-decoration:none;text-decoration-line:none;text-decoration-style:solid;text-decoration-color:#000000;letter-spacing:normal;word-spacing:normal;text-transform:none;writing-mode:lr-tb;direction:ltr;text-orientation:mixed;dominant-baseline:auto;baseline-shift:baseline;text-anchor:start;white-space:normal;shape-padding:0;clip-rule:nonzero;display:inline;overflow:visible;visibility:visible;opacity:1;isolation:auto;mix-blend-mode:normal;color-interpolation:sRGB;color-interpolation-filters:linearRGB;solid-color:#000000;solid-opacity:1;vector-effect:none;fill:none;fill-opacity:1;fill-rule:nonzero;stroke:#000000;stroke-width:0.1;stroke-linecap:round;stroke-linejoin:miter;stroke-miterlimit:4;stroke-dasharray:none;stroke-dashoffset:0;stroke-opacity:1;color-rendering:auto;image-rendering:auto;shape-rendering:auto;text-rendering:auto;enable-background:accumulate" />
    <path
       inkscape:connector-curvature="0"
       id="path1004"
       d="m 94.015625,201.28125 a 0.60006002,0.60006002 0 0 0 -0.560547,0.78516 c 0,0 0.436555,1.41295 1.154297,3.14062 0.717742,1.72768 1.700014,3.77316 2.900391,5.13281 a 0.60006002,0.60006002 0 1 0 0.898437,-0.79296 c -1.011581,-1.14582 -1.994243,-3.12735 -2.689453,-4.80079 -0.69521,-1.67343 -1.119141,-3.03515 -1.119141,-3.03515 a 0.60006002,0.60006002 0 0 0 -0.583984,-0.42969 z"
       style="color:#000000;font-style:normal;font-variant:normal;font-weight:normal;font-stretch:normal;font-size:medium;line-height:normal;font-family:sans-serif;font-variant-ligatures:normal;font-variant-position:normal;font-variant-caps:normal;font-variant-numeric:normal;font-variant-alternates:normal;font-feature-settings:normal;text-indent:0;text-align:start;text-decoration:none;text-decoration-line:none;text-decoration-style:solid;text-decoration-color:#000000;letter-spacing:normal;word-spacing:normal;text-transform:none;writing-mode:lr-tb;direction:ltr;text-orientation:mixed;dominant-baseline:auto;baseline-shift:baseline;text-anchor:start;white-space:normal;shape-padding:0;clip-rule:nonzero;display:inline;overflow:visible;visibility:visible;opacity:1;isolation:auto;mix-blend-mode:normal;color-interpolation:sRGB;color-interpolation-filters:linearRGB;solid-color:#000000;solid-opacity:1;vector-effect:none;fill:none;fill-opacity:1;fill-rule:nonzero;stroke:#000000;stroke-width:0.1;stroke-linecap:round;stroke-linejoin:miter;stroke-miterlimit:4;stroke-dasharray:none;stroke-dashoffset:0;stroke-opacity:1;color-rendering:auto;image-rendering:auto;shape-rendering:auto;text-rendering:auto;enable-background:accumulate" />
    <path
       inkscape:connector-curvature="0"
       id="path1006"
       d="m 114.18164,201.18359 a 0.60006002,0.60006002 0 0 0 -0.57226,0.42383 c 0,0 -0.4696,1.45447 -1.17579,3.1875 -0.70618,1.73303 -1.67629,3.75292 -2.52929,4.75 a 0.60006002,0.60006002 0 1 0 0.91211,0.7793 c 1.06383,-1.24354 2.00383,-3.29773 2.72851,-5.07617 0.72469,-1.77844 1.20703,-3.27344 1.20703,-3.27344 a 0.60006002,0.60006002 0 0 0 -0.57031,-0.79102 z"
       style="color:#000000;font-style:normal;font-variant:normal;font-weight:normal;font-stretch:normal;font-size:medium;line-height:normal;font-family:sans-serif;font-variant-ligatures:normal;font-variant-position:normal;font-variant-caps:normal;font-variant-numeric:normal;font-variant-alternates:normal;font-feature-settings:normal;text-indent:0;text-align:start;text-decoration:none;text-decoration-line:none;text-decoration-style:solid;text-decoration-color:#000000;letter-spacing:normal;word-spacing:normal;text-transform:none;writing-mode:lr-tb;direction:ltr;text-orientation:mixed;dominant-baseline:auto;baseline-shift:baseline;text-anchor:start;white-space:normal;shape-padding:0;clip-rule:nonzero;display:inline;overflow:visible;visibility:visible;opacity:1;isolation:auto;mix-blend-mode:normal;color-interpolation:sRGB;color-interpolation-filters:linearRGB;solid-color:#000000;solid-opacity:1;vector-effect:none;fill:none;fill-opacity:1;fill-rule:nonzero;stroke:#000000;stroke-width:0.1;stroke-linecap:round;stroke-linejoin:miter;stroke-miterlimit:4;stroke-dasharray:none;stroke-dashoffset:0;stroke-opacity:1;color-rendering:auto;image-rendering:auto;shape-rendering:auto;text-rendering:auto;enable-background:accumulate" />
  </g>
</svg>
